<?xml version="1.0" encoding="UTF-8"?>
<svg xmlns="http://www.w3.org/2000/svg" viewBox="0 0 1100 760" style="background:#eaf2f8;font-family:system-ui;">
  <defs><pattern id="grid" width="40" height="40" patternUnits="userSpaceOnUse"><path d="M 40 0 L 0 0 0 40" fill="none" stroke="#d8e1eb" stroke-width="0.5"/></pattern></defs>
  <rect width="1100" height="760" fill="#eaf2f8"/>
  <rect width="1100" height="760" fill="url(#grid)"/>
  <rect x="50" y="65" width="1000" height="630" fill="none" stroke="#94a3b8" stroke-width="2" rx="6"/>
  <text x="550" y="55" text-anchor="middle" font-size="15" font-weight="700" fill="#475569">Winter Park → Deltona → Orange City (FL)</text>
  <path d="M162,676 L162,679 L162,679 L162,679 L162,679 L162,679 L162,679 L161,679 L161,679 L161,679 L161,680 L161,680 L161,680 L161,680 L160,680 L160,680 L159,680 L158,680 L157,681 L155,681 L155,681 L154,681 L152,682 L151,682 L151,682 L150,682 L150,682 L150,682 L150,682 L149,682 L149,682 L149,682 L148,682 L148,682 L148,682 L147,682 L147,682 L147,682 L146,682 L146,682 L145,682 L144,682 L143,682 L142,682 L141,682 L140,682 L139,682 L138,682 L136,682 L135,682 L135,682 L135,682 L135,682 L135,682 L134,682 L134,683 L134,683 L134,683 L133,683 L133,683 L133,683 L133,683 L132,683 L132,683 L132,683 L131,683 L131,683 L130,683 L130,684 L130,684 L130,684 L129,684 L129,684 L129,684 L128,684 L128,684 L126,685 L126,685 L126,685 L126,685 L125,685 L125,685 L125,685 L124,685 L124,685 L124,685 L120,685 L119,685 L119,685 L118,685 L118,685 L117,685 L117,685 L117,685 L116,685 L116,685 L116,685 L116,685 L115,685 L115,685 L115,686 L114,686 L114,686 L113,686 L113,686 L113,686 L113,686 L112,686 L112,686 L112,686 L112,686 L110,686 L109,686 L109,686 L108,686 L107,686 L107,686 L107,686 L107,686 L107,686 L106,686 L104,686 L103,686 L100,686 L100,686 L100,686 L98,686 L98,686 L98,686 L97,686 L95,686 L94,686 L94,686 L93,686 L92,686 L91,686 L90,686 L89,686 L88,686 L88,686 L88,686 L86,686 L86,686 L86,686 L84,686 L83,686 L83,686 L82,686 L82,686 L81,686 L81,686 L77,686 L73,686 L72,686 L66,686 L66,686 L62,686 L62,686 L61,686 L57,686 L56,686 L55,686 L54,686 L53,686 L52,686 L49,686 L48,686 L47,686 L47,686 L47,686 L44,686 L43,686 L42,686 L41,686 L38,686 L38,686 L36,686 L36,686 L35,686 L34,686 L33,686 L32,686 L31,686 L30,686 L28,686 L28,686 L27,686 L26,686 L25,686 L24,686 L23,686 L22,686 L21,686 L19,686 L18,686 L17,686 L16,686 L16,686 L15,686 L14,686 L12,686 L9,686 L7,686 L5,686 L5,686 L4,686 L3,686 L2,686 L-1,686 L-2,686 L-3,686 L-5,686 L-7,686 L-10,686 L-10,686 L-14,686 L-14,686 L-15,686 L-16,686 L-17,686 L-19,686 L-20,686 L-21,686 L-22,686 L-24,686 L-26,686 L-27,686 L-27,686 L-27,686 L-28,686 L-29,686 L-29,686 L-31,686 L-32,686 L-33,686 L-33,686 L-33,686 L-34,686 L-34,686 L-35,686 L-36,686 L-36,685 L-38,685 L-40,684 L-42,684 L-44,683 L-46,682 L-47,682 L-48,682 L-49,681 L-50,680 L-51,680 L-52,679 L-53,678 L-53,677 L-54,676 L-54,675 L-54,675 L-54,673 L-55,667 L-55,666 L-55,662 L-55,661 L-55,659 L-55,657 L-55,654 L-55,654 L-55,647 L-55,646 L-55,644 L-55,641 L-55,640 L-55,639 L-55,638 L-55,635 L-55,634 L-56,634 L-56,633 L-56,632 L-56,632 L-57,631 L-57,630 L-58,629 L-58,628 L-59,628 L-59,627 L-60,626 L-60,626 L-60,624 L-60,624 L-60,623 L-60,623 L-60,621 L-60,620 L-60,619 L-60,618 L-60,617 L-60,617 L-61,614 L-61,611 L-62,607 L-63,605 L-63,603 L-64,601 L-64,601 L-64,600 L-64,599 L-64,596 L-64,593 L-64,591 L-64,585 L-65,575 L-65,572 L-65,569 L-65,568 L-65,567 L-64,564 L-64,561 L-64,558 L-65,553 L-65,549 L-65,539 L-65,537 L-65,536 L-65,532 L-65,530 L-65,529 L-65,528 L-65,527 L-64,527 L-64,526 L-63,525 L-62,524 L-61,524 L-60,523 L-58,522 L-57,522 L-55,521 L-53,520 L-45,516 L-40,513 L-39,513 L-38,512 L-37,512 L-37,512 L-36,511 L-35,510 L-34,510 L-33,509 L-32,508 L-30,507 L-29,505 L-25,502 L-24,500 L-22,499 L-20,496 L-20,496 L-12,488 L-9,486 L-8,485 L6,471 L7,471 L11,467 L12,466 L28,450 L37,441 L39,439 L52,427 L52,426 L60,419 L72,408 L75,404 L78,402 L81,400 L88,395 L93,392 L95,390 L97,389 L106,382 L107,382 L110,380 L114,377 L115,376 L116,375 L119,373 L120,372 L124,369 L129,365 L130,364 L132,363 L136,360 L139,358 L142,357 L144,356 L146,355 L151,352 L159,347 L164,343 L165,342 L169,340 L170,339 L176,335 L180,332 L186,328 L189,326 L190,325 L192,324 L194,323 L197,321 L200,320 L210,317 L213,316 L217,314 L228,311 L231,310 L237,308 L243,306 L244,305 L267,297 L280,293 L295,287 L334,274 L346,270 L359,265 L370,262 L378,259 L386,256 L395,253 L401,251 L405,250 L408,248 L409,248 L412,246 L414,245 L415,244 L417,243 L419,241 L422,239 L422,239 L423,239 L425,239 L426,239 L428,239 L429,239 L429,239 L429,240 L429,241 L430,242 L430,242 L431,243 L434,243 L437,243 L438,243 L438,243 L441,243 L445,243 L446,243 L449,243 L451,243 L453,243 L455,243 L457,242 L464,240 L466,240 L467,239 L468,239 L470,239 L472,239 L476,239 L477,239 L478,239 L494,239 L497,239 L499,239 L500,239 L500,239 L508,239 L511,239 L514,239 L516,239 L518,239 L520,239 L522,240 L524,240 L525,240 L528,241 L529,241 L531,241 L536,243 L538,244 L543,246 L544,246 L546,247 L547,247 L549,247 L550,247 L551,247 L553,247 L556,247 L557,247 L558,247 L559,247 L561,247 L561,247 L561,246 L561,242 L561,241 L561,240 L561,240 L561,240 L561,239 L561,239 L562,239 L563,238 L563,238 L565,237 L568,236 L571,235 L573,235 L574,234 L574,234 L575,234 L576,234 L577,234 L579,233 L580,233 L582,233 L584,233 L589,233 L593,233 L598,232 L599,232 L600,232 L601,232 L602,232 L603,231 L604,231 L605,231 L607,230 L608,230 L609,229 L610,229 L611,228 L611,228 L612,228 L613,228 L614,227 L614,227 L615,227 L615,227 L616,226 L616,226 L617,226 L618,226 L618,225 L619,225 L620,225 L620,225 L621,225 L622,224 L624,225 L625,225 L626,225 L626,225 L628,226 L629,226 L630,226 L631,226 L633,227 L635,227 L640,227 L642,227 L643,227 L647,227 L648,227 L656,227 L658,227 L662,227 L667,227 L669,227 L671,227 L672,227 L675,227 L677,227 L679,226 L683,226 L688,224 L690,224 L690,224 L691,224 L692,224 L694,224 L694,224 L695,224 L697,223 L700,223 L701,222 L703,222 L705,222 L707,222 L708,221 L709,221 L710,221 L710,221 L711,221 L712,220 L714,219 L716,218 L716,218 L717,218 L717,217 L717,217 L717,217 L717,216 L718,216 L718,216 L719,215 L719,215 L721,215 L724,214 L728,213 L731,214 L732,214 L733,214 L733,215 L734,215 L736,215 L737,215 L738,215 L740,215 L741,215 L742,215 L747,215 L748,215 L750,216 L750,216 L751,216 L753,216 L754,216 L755,216 L756,217 L757,217 L757,217 L764,215 L765,215 L766,214 L767,214 L768,214 L771,214 L773,214 L774,214 L775,214 L776,214 L776,214 L776,214 L777,214 L779,215 L782,215 L786,215 L788,215 L788,215 L789,215 L791,215 L792,216 L792,216 L793,216 L795,216 L796,216 L797,216 L798,216 L798,216 L799,216 L799,216 L800,217 L804,218 L801,219 L798,218 L796,217 L796,217 L795,217 L794,217 L788,218 L786,217 L786,216 L785,216 L784,216 L782,215 L779,215 L777,214 L776,214 L776,214 L776,214 L775,214 L774,214 L773,214 L771,214 L768,214 L767,214 L766,214 L765,215 L764,215 L757,217 L757,217 L756,217 L755,216 L754,216 L753,216 L751,216 L750,216 L750,216 L748,215 L747,215 L742,215 L741,215 L740,215 L738,215 L737,215 L736,215 L734,215 L733,215 L733,214 L732,214 L731,214 L728,213 L727,213 L726,212 L726,212 L725,212 L725,211 L724,211 L724,210 L724,208 L724,208 L723,207 L723,206 L722,206 L722,206 L722,205 L722,205 L722,203 L723,202 L723,201 L723,199 L723,198 L724,197 L724,196 L724,196 L724,195 L725,195 L725,194 L725,193 L725,193 L725,193 L724,193 L724,192 L723,192 L724,191 L731,190 L732,190 L734,190 L734,190 L735,190 L738,190 L741,190 L742,190 L743,190 L744,190 L745,190 L746,190 L749,189 L750,189 L751,188 L752,188 L753,188 L754,188 L755,188 L757,188 L758,188 L759,188 L761,189 L764,189 L767,190 L768,190 L770,190 L771,190 L772,190 L776,190 L780,190 L785,190 L786,190 L787,190 L789,190 L790,190 L793,190 L800,189 L803,188 L808,188 L810,188 L812,187 L822,187 L830,186 L832,186 L834,186 L836,186 L838,186 L838,186 L839,185 L840,185 L842,185 L843,184 L844,184 L844,184 L847,182 L850,180 L851,179 L851,179 L852,178 L853,178 L854,178 L856,177 L858,177 L859,177 L861,177 L864,177 L864,177 L868,176 L872,176 L873,176 L878,176 L888,175 L889,175 L889,175 L890,175 L894,175 L898,175 L900,175 L901,175 L902,175 L903,175 L904,175 L906,175 L911,175 L915,175 L920,175 L921,175 L924,175 L926,175 L928,175 L929,175 L929,174 L929,174 L929,174 L930,174 L933,173 L939,172 L940,172 L941,172 L943,172 L942,171 L942,169 L943,169 L943,169 L943,169 L944,169 L945,168 L947,169 L947,171 L947,171 L942,171 L932,171 L929,171 L924,171 L924,167 L924,167 L924,166 L924,166 L921,164 L920,164 L920,163 L920,163 L920,163 L920,162 L920,161 L920,161 L920,160 L920,160 L920,159 L921,158 L923,156 L923,156 L924,155 L924,155 L923,155 L923,151 L923,151 L923,151 L922,151 L922,151 L919,151 L914,151 L914,149 L914,149 L914,148 L914,147 L913,147 L913,147 L913,146 L912,146 L910,145 L910,145 L910,145 L906,146 L902,147 L899,147 L895,148 L893,148 L891,149 L887,149 L882,149 L879,150 L877,150 L876,150 L875,150 L873,151 L873,151 L872,151 L870,151 L866,152 L864,152 L862,153 L861,153 L861,153 L861,154 L861,154 L862,154 L864,155 L865,155 L866,156 L866,156 L866,156 L867,157 L867,158 L868,159 L868,160 L868,160 L868,160 L868,160 L868,160 L868,161 L868,161 L867,161 L867,161 L865,162 L865,162 L864,162 L862,162 L862,162 L858,161 L857,160 L856,160 L855,160 L852,159 L852,159 L850,158 L850,158 L848,158 L847,158 L847,157 L848,157 L849,157 L850,157 L850,157 L852,156 L853,155 L854,155 L855,155 L855,155 L855,155 L858,154 L860,154 L861,154 L861,153 L863,153 L863,153 L865,153 L867,152 L873,151 L873,151 L875,150 L876,150 L877,150 L879,150 L882,149 L887,149 L891,149 L893,148 L895,148 L899,147 L902,147 L906,146 L910,145 L910,145 L910,145 L908,144 L905,143 L904,142 L903,141 L902,141 L901,141 L899,138 L897,137 L896,135 L894,134 L894,133 L893,133 L892,132 L892,132 L890,132 L887,131 L883,130 L880,129 L879,128 L878,128 L877,127 L876,127 L876,126 L876,125 L876,123 L876,123 L875,122 L875,122 L874,121 L873,121 L871,119 L869,119 L868,118 L868,118 L868,117 L868,117 L868,116 L869,116 L869,115 L869,115 L870,115 L870,114 L871,114 L871,113 L871,113 L871,111 L871,111 L871,110 L870,110 L870,110 L869,109 L868,108 L865,107 L862,106 L870,104 L872,104 L874,104 L875,103 L876,103 L886,103 L886,105 L878,105 L877,105 L876,105 L873,105 L869,106 L865,107 L868,108 L869,109 L870,110 L870,110 L871,110 L871,111 L871,111 L871,113 L871,113 L871,114 L870,114 L870,115 L869,115 L869,115 L869,116 L868,116 L868,117 L868,117 L868,118 L868,118 L864,118 L860,119 L855,119 L850,120 L848,120 L846,120 L843,120 L827,120 L826,120 L823,120 L817,121 L813,122 L811,122 L809,122 L807,122 L805,123 L804,123 L802,123 L797,123 L793,124 L789,124 L785,125 L779,126 L777,126 L775,126 L774,126 L773,126 L773,125 L772,125 L771,125 L770,125 L769,125 L768,125 L764,124 L760,123 L756,123 L755,123 L754,122 L753,122 L752,122 L751,122 L750,121 L749,121 L749,120 L748,120 L748,120 L745,120 L742,120 L741,121 L740,121 L738,121 L737,121 L728,121 L726,121 L716,121 L709,121 L708,121 L707,121 L707,121 L705,121 L705,121 L704,121 L703,121 L701,122 L701,122 L700,122 L697,123 L694,124 L691,125 L688,127 L687,127 L685,128 L685,128 L684,128 L685,128 L687,128 L689,129 L693,130 L693,130 L696,131 L696,131 L699,131 L702,132 L705,133 L706,133 L706,133 L703,134 L702,135 L702,135 L701,135 L699,137 L698,139 L698,139 L697,139 L697,141 L698,143 L698,143 L698,143 L698,146 L698,147 L698,149 L698,149 L698,150 L698,150 L698,150 L698,150 L699,153 L700,154 L700,154 L700,154 L704,162 L705,162 L705,163 L705,164 L705,166 L705,167 L705,168 L705,168 L706,168 L706,169 L706,169 L707,169 L707,170 L707,170 L707,170 L707,171 L707,171 L707,171 L707,172 L707,172 L707,172 L707,173 L708,173 L708,173 L708,174 L708,174 L709,175 L709,176 L709,176 L709,177 L708,177 L708,178 L708,178 L708,178 L708,179 L708,181 L707,182 L706,182 L705,183 L704,183 L699,184 L696,185 L696,185 L696,185 L699,187 L701,187 L702,187 L703,187 L705,187 L707,187 L706,189 L703,189 L701,188 L700,188 L698,188 L697,188 L697,188 L696,187 L695,187 L692,186 L688,185 L686,184 L685,184 L683,184 L679,183 L675,183 L671,182 L669,182 L667,181 L666,181 L665,181 L663,180 L662,180 L659,179 L659,179 L658,179 L658,178 L656,178 L655,178 L653,177 L652,177 L652,177 L651,177 L651,177 L649,175 L648,175 L648,175 L648,175 L648,175 L648,175 L648,174 L648,174 L648,174 L648,174 L647,173 L647,173 L646,173 L646,173 L645,173 L644,172 L643,172 L642,172 L642,172 L641,172 L640,171 L638,171 L636,171 L635,171 L634,170 L630,172 L630,172 L629,172 L628,172 L627,172 L622,172 L618,172 L618,174 L618,175 L618,177 L618,178 L618,178 L595,178 L589,178 L587,178 L587,178 L586,178 L583,177 L582,177 L581,177 L579,177 L577,177 L575,177 L560,177 L560,176 L560,175 L560,173 L557,173 L552,173 L552,171 L551,171 L544,171 L542,171 L542,171 L542,171 L542,172 L543,172 L543,172 L544,172 L544,172 L544,173 L545,173 L545,173 L545,173 L545,173 L545,173 L545,174 L545,174 L545,174 L544,175 L544,175 L543,176 L542,176 L541,177 L541,177 L540,177 L539,178 L539,178 L538,178 L538,179 L538,179 L537,179 L537,179 L537,179 L536,180 L536,180 L536,180 L535,180 L535,180 L534,180 L534,180 L533,180 L533,180 L533,180 L532,181 L532,181 L532,181 L531,181 L531,182 L530,182 L530,182 L529,182 L528,182 L527,182 L527,182 L526,182 L524,181 L523,181 L523,181 L521,181 L519,181 L518,181 L516,181 L513,181 L512,181 L510,181 L510,181 L509,181 L509,181 L508,181 L508,181 L507,181 L506,181 L505,181 L505,181 L504,181 L504,181 L502,181 L500,181 L499,181 L498,181 L498,181 L497,181 L496,181 L496,181 L495,181 L494,181 L494,181 L492,181 L492,181 L488,181 L482,181 L480,181 L476,181 L472,181 L462,181 L461,181 L457,181 L455,181 L455,181 L454,181 L449,181 L448,181 L448,181 L447,181 L446,181 L446,181 L444,181 L443,181 L441,181 L440,181 L436,180 L436,180 L435,180 L433,180 L432,180 L431,180 L430,180 L430,180 L429,180 L429,180 L423,180 L420,180 L418,180 L417,180 L417,180 L413,180 L412,181 L411,181 L409,181 L406,181 L405,181 L403,181 L401,181 L399,181 L398,181 L398,181 L393,181 L390,181 L388,181 L382,181 L382,181 L381,181 L381,180 L380,180 L379,179 L379,179 L377,178 L377,178 L376,178 L376,177 L373,176 L372,175 L372,175 L368,172 L368,172 L367,172 L367,172 L366,171 L365,171 L365,171 L364,170 L363,169 L362,169 L361,168 L361,168 L361,168 L360,168 L359,167 L358,167 L356,166 L355,165 L354,165 L354,165 L354,164 L353,164 L353,164 L352,164 L352,164 L352,163 L351,163 L351,163 L349,162 L349,162 L348,162 L347,162 L347,162 L347,161 L347,161 L348,160 L348,160 L348,160 L348,159 L349,159 L349,158 L349,157 L349,157 L349,156 L349,156 L349,156 L349,155 L349,154 L349,154 L349,154 L349,154 L349,153 L349,152 L349,152 L349,152 L349,151 L349,151 L349,150 L349,150 L349,149 L349,149 L349,148 L349,148 L349,148 L349,148 L349,147 L349,147 L349,146 L349,146 L349,146 L349,145 L349,145 L349,145 L349,144 L349,144 L349,143 L349,143 L349,143 L349,143 L349,143 L349,142 L349,142 L349,141 L349,141 L349,141 L349,140 L349,140 L349,139 L349,139 L349,138 L349,138 L349,137 L349,137 L349,137 L349,137 L349,137 L349,136 L349,136 L349,136 L349,136 L349,136 L349,135 L349,135 L349,135 L349,134 L349,134 L349,134 L349,133 L349,133 L349,133 L349,133 L349,132 L349,132 L349,131 L349,131 L349,131 L349,130 L349,130 L349,130 L349,130 L349,129 L349,129 L349,128 L349,128 L349,127 L349,127 L349,126 L349,126 L349,126 L349,125 L349,124 L349,124 L349,124 L349,123 L349,123 L349,123 L349,123 L349,122 L349,122 L349,122 L349,121 L349,121 L349,121 L349,121 L349,121 L349,120 L349,120 L349,120 L349,119 L349,119 L349,118 L349,118 L349,117 L349,117 L349,117 L349,116 L349,116 L349,116 L349,116 L349,115 L348,115 L345,115 L339,115 L339,115 L336,115 L332,115 L330,115 L329,115 L322,115 L315,115 L314,115 L310,115 L310,115 L309,116 L309,116 L309,116 L308,116 L308,116 L308,116 L308,116 L308,115 L308,115 L310,115 L310,115 L315,115 L322,115 L329,115 L330,115 L332,115 L336,115 L339,115 L339,115 L345,115 L348,115 L349,115 L349,116 L349,116 L349,116 L349,116 L349,117 L349,117 L349,117 L349,118 L349,118 L349,119 L349,119 L349,120 L349,120 L349,120 L349,121 L349,121 L349,121 L349,121 L349,121 L349,122 L349,122 L349,122 L349,123 L349,123 L349,123 L349,123 L349,124 L349,124 L349,124 L349,125 L349,126 L349,126 L349,126 L349,127 L349,127 L349,128 L349,128 L349,129 L349,129 L349,130 L349,130 L349,130 L349,130 L349,131 L349,131 L349,131 L349,132 L349,132 L349,133 L349,133 L349,133 L349,133 L349,134 L349,134 L349,134 L349,135 L349,135 L349,135 L349,136 L349,136 L349,136 L349,136 L349,136 L349,137 L349,137 L349,137 L349,137 L349,137 L349,138 L349,138 L349,139 L349,139 L349,140 L349,140 L349,141 L349,141 L349,141 L349,142 L349,142 L349,143 L349,143 L349,143 L349,143 L349,143 L349,144 L349,144 L349,145 L349,145 L349,145 L349,146 L349,146 L349,146 L349,147 L349,147 L349,148 L349,148 L349,148 L349,148 L349,149 L349,149 L349,150 L349,150 L349,151 L349,151 L349,152 L349,152 L349,152 L349,152 L348,153 L348,153 L348,154 L348,154 L348,154 L348,155 L348,155 L348,156 L348,156 L348,156 L348,157 L348,157 L348,157 L348,158 L348,158 L348,158 L348,159 L347,159 L347,159 L347,160 L347,160 L347,160 L346,161 L346,161 L346,162 L347,162 L347,162 L348,162 L349,162 L349,162 L350,162 L351,163 L351,163 L352,163 L352,164 L352,164 L353,164 L353,164 L354,164 L354,165 L354,165 L355,165 L356,166 L358,167 L359,167 L360,168 L361,168 L361,168 L361,168 L362,169 L363,169 L363,169 L365,169 L370,169 L370,169 L372,169 L373,169 L373,169 L372,169 L372,169 L372,169 L372,169 L372,169 L370,169 L370,169 L365,169 L363,169 L363,169 L363,169 L364,170 L365,171 L365,171 L366,171 L367,172 L367,172 L368,172 L368,172 L372,175 L372,175 L373,176 L376,177 L376,178 L376,178 L376,178 L376,178 L378,179 L379,180 L380,180 L380,181 L380,181 L381,181 L382,181 L383,181 L385,181 L386,181 L388,181 L390,181 L393,181 L394,181 L398,181 L398,181 L399,181 L402,181 L406,181 L411,181 L412,181 L418,181 L419,181 L427,181 L429,181 L429,181 L430,181 L430,181 L431,181 L435,181 L437,181 L440,181 L441,181 L443,181 L444,181 L445,181 L448,181 L449,181 L454,181 L455,181 L455,181 L460,181 L461,181 L461,181 L462,181 L462,181 L463,181 L463,181 L463,181 L463,182 L463,182 L463,182 L464,183 L464,183 L466,184 L467,184 L468,184 L468,185 L468,185 L468,186 L465,189 L463,191 L460,193 L456,196 L453,198 L451,200 L451,200 L449,202 L448,204 L447,208 L445,211 L443,214 L427,231 L424,234 L423,236 L422,237 L421,238 L417,242 L416,243 L414,244 L413,245 L411,246 L408,248 L407,248 L404,249 L401,251 L392,254 L378,258 L355,266 L345,270 L327,276 L317,279 L298,286 L293,287 L282,291 L265,297 L241,305 L240,305 L229,309 L226,310 L218,313 L214,315 L198,320 L194,322 L191,323 L188,325 L185,327 L180,331 L173,336 L168,339 L167,340 L165,341 L163,342 L161,343 L158,346 L156,347 L155,348 L154,348 L150,351 L147,353 L145,353 L133,360 L129,363 L128,364 L123,367 L122,369 L121,369 L117,373 L115,375 L114,375 L114,376 L112,377 L95,389 L82,398 L78,401 L75,403 L59,418 L54,423 L49,428 L41,436 L32,445 L26,451 L16,460 L1,474 L-20,495 L-21,496 L-22,497 L-26,501 L-27,502 L-27,502 L-30,505 L-31,505 L-34,508 L-36,510 L-37,511 L-38,511 L-40,512 L-43,513 L-47,516 L-56,520 L-61,522 L-63,524 L-65,525 L-65,525 L-66,526 L-67,527 L-67,528 L-68,529 L-68,529 L-68,531 L-68,532 L-67,536 L-67,540 L-67,543 L-67,547 L-67,549 L-67,551 L-67,552 L-67,553 L-67,555 L-67,558 L-67,559 L-67,561 L-67,563 L-67,564 L-67,565 L-67,566 L-67,568 L-67,569 L-67,571 L-67,577 L-67,577 L-67,584 L-67,585 L-67,588 L-67,596 L-67,598 L-67,600 L-67,600 L-67,602 L-66,603 L-66,604 L-66,605 L-65,607 L-65,608 L-64,608 L-63,612 L-63,614 L-63,614 L-63,615 L-62,616 L-62,618 L-62,620 L-62,621 L-63,623 L-63,624 L-63,625 L-62,626 L-61,627 L-60,629 L-59,630 L-59,631 L-59,632 L-58,633 L-58,634 L-58,635 L-58,637 L-58,638 L-58,639 L-58,639 L-58,640 L-58,641 L-58,642 L-58,644 L-58,645 L-58,646 L-58,647 L-58,652 L-58,656 L-58,658 L-58,658 L-58,659 L-58,660 L-57,661 L-57,662 L-57,666 L-57,666 L-57,672 L-56,675 L-56,676 L-56,677 L-55,678 L-55,678 L-54,679 L-54,680 L-52,681 L-52,681 L-52,681 L-52,681 L-52,681 L-52,681 L-51,681 L-51,682 L-50,682 L-50,682 L-50,682 L-48,683 L-47,684 L-47,684 L-46,684 L-45,685 L-44,685 L-43,685 L-41,686 L-40,686 L-39,686 L-39,686 L-39,686 L-38,687 L-38,687 L-34,687 L-33,687 L-33,687 L-30,687 L-29,686 L-29,686 L-28,686 L-27,686 L-27,686 L-27,686 L-26,686 L-24,686 L-22,686 L-21,686 L-20,686 L-19,686 L-17,686 L-16,686 L-15,686 L-14,686 L-14,686 L-10,686 L-10,686 L-7,686 L-5,686 L-3,686 L-2,686 L-1,686 L2,686 L3,686 L4,686 L5,686 L5,686 L7,686 L9,686 L12,686 L14,686 L15,686 L16,686 L16,686 L17,686 L18,686 L19,686 L21,686 L22,686 L23,686 L24,686 L25,686 L26,686 L27,686 L28,686 L28,686 L30,686 L31,686 L32,686 L32,686 L35,686 L36,686 L37,686 L38,686 L38,686 L39,686 L41,686 L42,686 L43,687 L44,687 L44,687 L45,687 L46,687 L47,687 L49,686 L52,686 L53,686 L54,686 L55,686 L56,686 L57,686 L61,686 L62,686 L62,686 L66,686 L66,686 L72,686 L73,686 L77,686 L81,686 L81,686 L82,687 L82,687 L82,687 L83,687 L83,686 L84,686 L84,686 L85,686 L85,686 L86,686 L86,686 L86,686 L88,686 L88,686 L88,686 L89,686 L90,686 L91,686 L92,686 L93,686 L94,686 L94,686 L95,686 L97,686 L98,686 L98,686 L98,686 L100,686 L100,686 L100,686 L103,686 L104,686 L106,686 L107,686 L107,686 L107,686 L107,686 L107,686 L108,686 L109,686 L109,686 L110,686 L112,686 L112,686 L112,686 L112,686 L113,686 L113,686 L113,686 L113,686 L114,686 L114,686 L115,686 L115,685 L116,685 L116,685 L116,685 L117,685 L117,685 L117,685 L118,685 L118,685 L118,685 L119,685 L119,685 L120,685 L124,685 L124,685 L124,685 L125,685 L125,685 L125,685 L126,685 L126,685 L126,685 L126,685 L128,684 L128,684 L129,684 L129,684 L129,684 L130,684 L130,684 L130,684 L131,684 L131,683 L132,683 L132,683 L132,683 L132,683 L133,683 L133,683 L133,683 L133,683 L134,683 L134,683 L134,683 L134,682 L135,682 L135,682 L135,682 L135,682 L135,682 L136,682 L138,682 L139,682 L140,682 L141,682 L142,682 L143,682 L144,682 L145,682 L146,682 L146,682 L147,682 L147,682 L147,682 L148,682 L148,682 L148,682 L149,682 L149,682 L149,682 L150,682 L150,682 L150,682 L150,682 L151,682 L151,682 L152,682 L154,681 L155,681 L155,681 L157,681 L158,680 L159,680 L160,680 L161,680 L161,680 L161,680 L161,680 L161,680 L162,680 L162,680 L162,679 L162,679 L162,679 L162,679 L162,679 L162,679 L162,679 L162,679 L162,679 L162,676" fill="none" stroke="#2563eb" stroke-width="5" stroke-linejoin="round" stroke-linecap="round" opacity="0.8"/>
  <circle cx="162" cy="676" r="14" fill="#16a34a" stroke="#fff" stroke-width="4" filter="drop-shadow(0 3px 6px rgba(0,0,0,0.35))"/>
  <text x="162" y="681" text-anchor="middle" font-size="16" font-weight="800">🚛</text>
  <rect x="82" y="694" width="160" height="40" fill="#16a34a" rx="8"/>
  <text x="162" y="712" text-anchor="middle" font-size="11" font-weight="800" fill="#fff">ORIGEN: WINTER PARK</text>
  <text x="162" y="726" text-anchor="middle" font-size="9" fill="#dcfce7">Yandier · sale 10:21 AM</text>
  
  <g>
    <circle cx="798" cy="216" r="17" fill="#2563eb" stroke="#fff" stroke-width="3" filter="drop-shadow(0 2px 4px rgba(0,0,0,0.35))"/>
    <text x="798" y="221" text-anchor="middle" font-size="14" font-weight="800" fill="#fff">1</text>
    <text x="776" y="211" text-anchor="end" font-size="12" font-weight="700" fill="#0f172a">Madelaine Bridon</text>
    <text x="776" y="226" text-anchor="end" font-size="10" font-weight="600" fill="#2563eb">10:42 AM</text>
    <text x="776" y="239" text-anchor="end" font-size="8" fill="#94a3b8">2401 Weatherford Dr</text>
  </g>
  <g>
    <circle cx="864" cy="177" r="17" fill="#2563eb" stroke="#fff" stroke-width="3" filter="drop-shadow(0 2px 4px rgba(0,0,0,0.35))"/>
    <text x="864" y="182" text-anchor="middle" font-size="14" font-weight="800" fill="#fff">2</text>
    <text x="886" y="172" text-anchor="start" font-size="12" font-weight="700" fill="#0f172a">Arely</text>
    <text x="886" y="187" text-anchor="start" font-size="10" font-weight="600" fill="#2563eb">10:50 AM</text>
    <text x="886" y="200" text-anchor="start" font-size="8" fill="#94a3b8">1758 Baldock Ct</text>
  </g>
  <g>
    <circle cx="948" cy="171" r="17" fill="#2563eb" stroke="#fff" stroke-width="3" filter="drop-shadow(0 2px 4px rgba(0,0,0,0.35))"/>
    <text x="948" y="176" text-anchor="middle" font-size="14" font-weight="800" fill="#fff">3</text>
    <text x="970" y="166" text-anchor="start" font-size="12" font-weight="700" fill="#0f172a">Aurora Espinosa</text>
    <text x="970" y="181" text-anchor="start" font-size="10" font-weight="600" fill="#2563eb">10:57 AM</text>
    <text x="970" y="194" text-anchor="start" font-size="8" fill="#94a3b8">1861 Courtland Blvd</text>
  </g>
  <g>
    <circle cx="919" cy="161" r="17" fill="#2563eb" stroke="#fff" stroke-width="3" filter="drop-shadow(0 2px 4px rgba(0,0,0,0.35))"/>
    <text x="919" y="166" text-anchor="middle" font-size="14" font-weight="800" fill="#fff">4</text>
    <text x="897" y="156" text-anchor="end" font-size="12" font-weight="700" fill="#0f172a">Randy</text>
    <text x="897" y="171" text-anchor="end" font-size="10" font-weight="600" fill="#2563eb">11:03 AM</text>
    <text x="897" y="184" text-anchor="end" font-size="8" fill="#94a3b8">2048 Laredo Dr</text>
  </g>
  <g>
    <circle cx="868" cy="160" r="17" fill="#2563eb" stroke="#fff" stroke-width="3" filter="drop-shadow(0 2px 4px rgba(0,0,0,0.35))"/>
    <text x="868" y="165" text-anchor="middle" font-size="14" font-weight="800" fill="#fff">5</text>
    <text x="890" y="155" text-anchor="start" font-size="12" font-weight="700" fill="#0f172a">Xiomara González</text>
    <text x="890" y="170" text-anchor="start" font-size="10" font-weight="600" fill="#2563eb">11:09 AM</text>
    <text x="890" y="183" text-anchor="start" font-size="8" fill="#94a3b8">2101 Capri Cir</text>
  </g>
  <g>
    <circle cx="872" cy="104" r="20" fill="#dc2626" stroke="#fff" stroke-width="3" filter="drop-shadow(0 2px 4px rgba(0,0,0,0.35))"/>
    <text x="872" y="109" text-anchor="middle" font-size="14" font-weight="800" fill="#fff">6</text>
    <text x="894" y="99" text-anchor="start" font-size="12" font-weight="800" fill="#dc2626">Marielena ⭐</text>
    <text x="894" y="114" text-anchor="start" font-size="10" font-weight="600" fill="#dc2626">11:18 AM</text>
    <text x="894" y="127" text-anchor="start" font-size="8" fill="#94a3b8">2873 Irondale St</text>
  </g>
  <g>
    <circle cx="696" cy="185" r="17" fill="#2563eb" stroke="#fff" stroke-width="3" filter="drop-shadow(0 2px 4px rgba(0,0,0,0.35))"/>
    <text x="696" y="190" text-anchor="middle" font-size="14" font-weight="800" fill="#fff">7</text>
    <text x="674" y="180" text-anchor="end" font-size="12" font-weight="700" fill="#0f172a">Noida Ávila</text>
    <text x="674" y="195" text-anchor="end" font-size="10" font-weight="600" fill="#2563eb">11:30 AM</text>
    <text x="674" y="208" text-anchor="end" font-size="8" fill="#94a3b8">1711 Providence Blvd</text>
  </g>
  <g>
    <circle cx="618" cy="178" r="17" fill="#2563eb" stroke="#fff" stroke-width="3" filter="drop-shadow(0 2px 4px rgba(0,0,0,0.35))"/>
    <text x="618" y="183" text-anchor="middle" font-size="14" font-weight="800" fill="#fff">8</text>
    <text x="640" y="173" text-anchor="start" font-size="12" font-weight="700" fill="#0f172a">Tania Iglesias</text>
    <text x="640" y="188" text-anchor="start" font-size="10" font-weight="600" fill="#2563eb">11:37 AM</text>
    <text x="640" y="201" text-anchor="start" font-size="8" fill="#94a3b8">1174 S Cooper Dr</text>
  </g>
  <g>
    <circle cx="551" cy="171" r="17" fill="#2563eb" stroke="#fff" stroke-width="3" filter="drop-shadow(0 2px 4px rgba(0,0,0,0.35))"/>
    <text x="551" y="176" text-anchor="middle" font-size="14" font-weight="800" fill="#fff">9</text>
    <text x="573" y="166" text-anchor="start" font-size="12" font-weight="700" fill="#0f172a">Larry</text>
    <text x="573" y="181" text-anchor="start" font-size="10" font-weight="600" fill="#2563eb">11:44 AM</text>
    <text x="573" y="194" text-anchor="start" font-size="8" fill="#94a3b8">794 Elwood St</text>
  </g>
  <g>
    <circle cx="314" cy="115" r="17" fill="#2563eb" stroke="#fff" stroke-width="3" filter="drop-shadow(0 2px 4px rgba(0,0,0,0.35))"/>
    <text x="314" y="120" text-anchor="middle" font-size="14" font-weight="800" fill="#fff">10</text>
    <text x="292" y="110" text-anchor="end" font-size="12" font-weight="700" fill="#0f172a">Jenny</text>
    <text x="292" y="125" text-anchor="end" font-size="10" font-weight="600" fill="#2563eb">11:56 AM</text>
    <text x="292" y="138" text-anchor="end" font-size="8" fill="#94a3b8">615 W French Ave</text>
  </g>
  <g>
    <circle cx="363" cy="169" r="17" fill="#2563eb" stroke="#fff" stroke-width="3" filter="drop-shadow(0 2px 4px rgba(0,0,0,0.35))"/>
    <text x="363" y="174" text-anchor="middle" font-size="14" font-weight="800" fill="#fff">11</text>
    <text x="385" y="164" text-anchor="start" font-size="12" font-weight="700" fill="#0f172a">Ideliza Artiaga</text>
    <text x="385" y="179" text-anchor="start" font-size="10" font-weight="600" fill="#2563eb">12:05 PM</text>
    <text x="385" y="192" text-anchor="start" font-size="8" fill="#94a3b8">2515 Enterprise Dr</text>
  </g>
  <rect x="20" y="20" width="1060" height="40" fill="#0f172a" rx="8"/>
  <text x="40" y="46" font-size="17" font-weight="800" fill="#fff">🚛 RUTA OPTIMIZADA — YANDIER · HOY (11 casas)</text>
  <text x="1060" y="46" text-anchor="end" font-size="12" font-weight="700" fill="#60a5fa">40.9 mi · 70 min</text>
  <rect x="840" y="655" width="240" height="85" fill="rgba(255,255,255,0.95)" stroke="#cbd5e1" rx="10"/>
  <circle cx="860" cy="678" r="9" fill="#16a34a"/><text x="875" y="682" font-size="11" fill="#0f172a">Origen (Winter Park)</text>
  <circle cx="860" cy="700" r="9" fill="#2563eb"/><text x="875" y="704" font-size="11" fill="#0f172a">Recogida (1-11)</text>
  <circle cx="860" cy="722" r="9" fill="#dc2626"/><text x="875" y="726" font-size="11" fill="#0f172a">⭐ Marielena (nueva)</text>
  <line x1="855" y1="744" x2="875" y2="744" stroke="#2563eb" stroke-width="4"/><text x="880" y="748" font-size="11" fill="#0f172a">Ruta óptima</text>
</svg>